<?xml version="1.0" ?><svg id="Layer_1" style="enable-background:new 0 0 128 128;" version="1.1" viewBox="0 0 128 128" xml:space="preserve" xmlns="http://www.w3.org/2000/svg" xmlns:xlink="http://www.w3.org/1999/xlink"><style type="text/css">
	.st0{fill:#231F20;}
	.st1{fill:#E61E25;}
	.st2{fill:#089949;}
	.st3{fill:#FFFFFF;}
	.st4{fill:#D81F26;}
	.st5{fill:#233E93;}
	.st6{fill:#F16522;}
	.st7{fill:#0398C3;}
	.st8{fill:#DE1E39;}
	.st9{fill:#00AD65;}
	.st10{fill:#FFFFFB;}
	.st11{fill:#CE2031;}
	.st12{fill:#A81D44;}
	.st13{fill:#008757;}
	.st14{fill:#ED3342;}
	.st15{fill:#F8EC3B;}
	.st16{fill:#F37C20;}
	.st17{fill:#F1E923;}
	.st18{fill:#020202;}
	.st19{fill:#E32A27;}
	.st20{fill:#EC1C2B;}
	.st21{fill:#28439B;}
	.st22{fill:#E32B25;}
	.st23{fill:#FDDB00;}
	.st24{fill:#E71D2E;}
	.st25{fill:#0D8943;}
	.st26{fill:#F58722;}
	.st27{fill:#333493;}
	.st28{fill:#D52028;}
	.st29{fill:#2B4A9E;}
	.st30{fill:#1D9E49;}
	.st31{fill:#DB1F26;}
	.st32{fill:#DD1F28;}
	.st33{fill:#35469C;}
	.st34{fill:#ED2424;}
	.st35{fill:#018B45;}
	.st36{fill:#DD1F26;}
	.st37{fill:#0A9D49;}
	.st38{fill:#E81E25;}
	.st39{fill:#293580;}
	.st40{fill:#D91F26;}
	.st41{fill:#EC1C25;}
	.st42{fill:#27B36D;}
	.st43{fill:#FBDF00;}
	.st44{fill:#3EB44A;}
	.st45{fill:#ED2E33;}
	.st46{fill:#DF252F;}
	.st47{fill:#2F4C9F;}
	.st48{fill:#F6CD0F;}
	.st49{fill:#DC1F28;}
	.st50{fill:#117F40;}
	.st51{fill:#E13131;}
	.st52{fill:#2B2D7E;}
	.st53{fill:#FCD900;}
	.st54{fill:#038A45;}
	.st55{fill:#EC2025;}
	.st56{fill:#EC1C2A;}
	.st57{fill:#2651A3;}
	.st58{fill:#0D804B;}
	.st59{fill:#354EA0;}
	.st60{fill:none;}
	.st61{fill:#DF1F2A;}
	.st62{fill:#FFFFFA;}
	.st63{fill:#F9D10B;}
	.st64{fill:#DF1F26;}
	.st65{fill:#009651;}
</style><g><path class="st10" d="M66.1,45.7L44,54.8L66.1,64L44,73.2l22.1,9.2L44,91.5l22.1,9.2L44,109.8l2.5,1.1   c-13.8-5.2-24.8-16.3-29.7-30.2C15,75.4,14,69.8,14,64c0-5.8,1-11.4,2.8-16.6C21.5,34.3,31.3,23.7,44,18.2l22.1,9.2L44,36.5   L66.1,45.7z"/><path class="st0" d="M114,64c0,5.8-1,11.4-2.8,16.6c-6.6,18.7-23.9,32.3-44.6,33.3c-0.9,0.1-1.7,0.1-2.6,0.1c-0.9,0-1.7,0-2.6-0.1   c-5.2-0.3-10.1-1.3-14.8-3l-0.1-0.1l-2.5-1.1l22.1-9.2L44,91.5l22.1-9.2L44,73.2L66.1,64L44,54.8l22.1-9.2L44,36.5l22.1-9.2   L44,18.2l2.1-0.9c4.8-1.8,9.9-3,15.3-3.2c0.8,0,1.7-0.1,2.6-0.1c0.9,0,1.7,0,2.6,0.1c20.7,1,38,14.6,44.6,33.3   C113,52.6,114,58.2,114,64z"/><path class="st12" d="M114,64c0,5.8-1,11.4-2.8,16.6c-6.6,18.7-23.9,32.3-44.6,33.3c-0.9,0.1-1.7,0.1-2.6,0.1c-0.9,0-1.7,0-2.6-0.1   c-5.2-0.3-10.1-1.3-14.8-3l-0.1-0.1l-2.5-1.1l22.1-9.2L44,91.5l22.1-9.2L44,73.2L66.1,64L44,54.8l22.1-9.2L44,36.5l22.1-9.2   L44,18.2l2.1-0.9c4.8-1.8,9.9-3,15.3-3.2c0.8,0,1.7-0.1,2.6-0.1c0.9,0,1.7,0,2.6,0.1c20.7,1,38,14.6,44.6,33.3   C113,52.6,114,58.2,114,64z"/></g></svg>