<?xml version="1.0" encoding="UTF-8"?>
<!DOCTYPE svg PUBLIC "-//W3C//DTD SVG 1.1//EN" "http://www.w3.org/Graphics/SVG/1.1/DTD/svg11.dtd">
<svg xmlns="http://www.w3.org/2000/svg" version="1.1" width="512px" height="512px" style="shape-rendering:geometricPrecision; text-rendering:geometricPrecision; image-rendering:optimizeQuality; fill-rule:evenodd; clip-rule:evenodd" xmlns:xlink="http://www.w3.org/1999/xlink">
<g><path style="opacity:1" fill="#c51b1b" d="M 232.5,-0.5 C 247.833,-0.5 263.167,-0.5 278.5,-0.5C 281.5,0.166667 284.5,0.833333 287.5,1.5C 197.615,13.9131 131.115,59.9131 88,139.5C 52.0109,215.179 51.3443,291.179 86,367.5C 128.542,449.388 195.709,496.721 287.5,509.5C 284.5,510.167 281.5,510.833 278.5,511.5C 263.167,511.5 247.833,511.5 232.5,511.5C 142.856,500.612 75.3562,456.279 30,378.5C 13.3053,347.029 3.1386,313.696 -0.5,278.5C -0.5,263.167 -0.5,247.833 -0.5,232.5C 10.3875,142.857 54.7208,75.3573 132.5,30C 163.971,13.3053 197.304,3.1386 232.5,-0.5 Z"/></g>
<g><path style="opacity:1" fill="#da1b1b" d="M 287.5,1.5 C 350.018,9.25598 402.351,36.256 444.5,82.5C 445.419,85.0892 447.086,87.0892 449.5,88.5C 452.55,90.5491 454.883,93.2157 456.5,96.5C 456.427,98.0269 457.094,99.0269 458.5,99.5C 464.149,105.459 468.815,112.125 472.5,119.5C 472.427,121.027 473.094,122.027 474.5,122.5C 475.338,122.842 475.672,123.508 475.5,124.5C 475.427,126.027 476.094,127.027 477.5,127.5C 478.674,128.514 479.34,129.847 479.5,131.5C 479.427,133.027 480.094,134.027 481.5,134.5C 490.964,151.109 497.964,168.776 502.5,187.5C 502.171,190.228 502.837,192.562 504.5,194.5C 504.5,194.833 504.5,195.167 504.5,195.5C 504.42,198.781 505.087,201.781 506.5,204.5C 508.656,213.753 510.323,223.086 511.5,232.5C 511.5,247.833 511.5,263.167 511.5,278.5C 507.063,324.488 491.396,366.155 464.5,403.5C 463.094,403.973 462.427,404.973 462.5,406.5C 461.876,408.754 460.543,410.421 458.5,411.5C 457.094,411.973 456.427,412.973 456.5,414.5C 447.238,426.431 436.904,437.431 425.5,447.5C 423.973,447.427 422.973,448.094 422.5,449.5C 383.937,483.378 338.937,503.378 287.5,509.5C 195.709,496.721 128.542,449.388 86,367.5C 51.3443,291.179 52.0109,215.179 88,139.5C 131.115,59.9131 197.615,13.9131 287.5,1.5 Z"/></g>
<g><path style="opacity:0.992" fill="#bd555f" d="M 444.5,82.5 C 446.914,83.9108 448.581,85.9108 449.5,88.5C 447.086,87.0892 445.419,85.0892 444.5,82.5 Z"/></g>
<g><path style="opacity:0.773" fill="#b95368" d="M 456.5,96.5 C 457.906,96.9731 458.573,97.9731 458.5,99.5C 457.094,99.0269 456.427,98.0269 456.5,96.5 Z"/></g>
<g><path style="opacity:1" fill="#2a273c" d="M 239.5,137.5 C 235.194,138.066 234.861,138.732 238.5,139.5C 242.934,140.596 246.601,142.929 249.5,146.5C 248.271,147.281 246.938,147.781 245.5,148C 248.313,151.981 251.647,155.481 255.5,158.5C 259.353,155.481 262.687,151.981 265.5,148C 264.062,147.781 262.729,147.281 261.5,146.5C 264.481,143.023 268.148,140.523 272.5,139C 271.377,137.956 270.044,137.29 268.5,137C 272.5,134 276.5,131 280.5,128C 277.833,126 275.167,124 272.5,122C 281.421,121.069 290.088,119.069 298.5,116C 302.5,115.333 306.5,115.333 310.5,116C 312.779,116.473 314.779,117.473 316.5,119C 319.833,119.333 323.167,119.667 326.5,120C 327.667,121.167 328.833,122.333 330,123.5C 330.688,124.332 330.521,124.998 329.5,125.5C 323.65,123.17 318.983,124.503 315.5,129.5C 319.826,130.435 324.16,130.268 328.5,129C 333.128,127.019 337.461,124.519 341.5,121.5C 344.019,123.359 344.019,125.359 341.5,127.5C 334.377,130.114 327.043,131.781 319.5,132.5C 319.5,133.5 319.5,134.5 319.5,135.5C 329.564,134.938 329.898,136.105 320.5,139C 304.402,138.9 291.902,145.4 283,158.5C 280.158,166.308 281.991,172.808 288.5,178C 294.484,178.925 298.984,176.758 302,171.5C 303.011,166.213 303.844,160.879 304.5,155.5C 314.378,150.394 324.378,145.561 334.5,141C 336.167,140.333 337.833,140.333 339.5,141C 340.529,142.698 342.029,143.532 344,143.5C 358.694,140.902 370.194,133.402 378.5,121C 380.706,118.654 383.206,118.154 386,119.5C 388.677,126.418 387.511,132.585 382.5,138C 371.23,147.466 358.23,152.799 343.5,154C 341.398,155.733 341.065,157.733 342.5,160C 349.833,160.667 357.167,160.667 364.5,160C 370.977,157.926 376.977,155.092 382.5,151.5C 384.374,151.39 385.874,152.056 387,153.5C 387.501,162.354 383.334,167.854 374.5,170C 363.553,173.129 352.553,173.296 341.5,170.5C 341.247,172.827 341.914,174.827 343.5,176.5C 351.738,182.548 360.738,184.048 370.5,181C 374.491,178.422 378.657,176.255 383,174.5C 387.082,175.159 388.416,177.492 387,181.5C 385.193,187.307 381.36,191.141 375.5,193C 370.5,193.667 365.5,193.667 360.5,193C 354.946,191.305 349.446,189.472 344,187.5C 338.581,188.866 338.081,191.366 342.5,195C 347.167,197 351.833,199 356.5,201C 366.236,201.524 375.903,201.191 385.5,200C 386.83,202.877 386.664,205.711 385,208.5C 378.142,213.523 370.642,214.69 362.5,212C 357.166,209.082 351.666,206.582 346,204.5C 344.129,204.709 342.962,205.709 342.5,207.5C 348.444,212.479 354.777,216.979 361.5,221C 368.753,222.803 376.086,224.137 383.5,225C 386.758,229.767 385.758,233.434 380.5,236C 374.026,236.882 368.026,235.549 362.5,232C 356.998,228.415 351.331,225.081 345.5,222C 343.833,221.333 342.167,221.333 340.5,222C 339.941,222.725 339.608,223.558 339.5,224.5C 349.261,242.879 364.595,250.379 385.5,247C 386.574,247.739 387.241,248.739 387.5,250C 383.906,257.656 377.906,260.323 369.5,258C 364.864,257.121 360.531,255.455 356.5,253C 351.167,248.333 345.833,243.667 340.5,239C 339.207,238.51 337.873,238.343 336.5,238.5C 336.687,240.564 337.187,242.564 338,244.5C 343.833,251 349.667,257.5 355.5,264C 358.167,265.333 360.833,266.667 363.5,268C 369.942,268.083 376.275,268.749 382.5,270C 386.802,274.797 386.136,278.797 380.5,282C 373.203,284.397 366.203,283.731 359.5,280C 349.887,270.387 340.221,260.721 330.5,251C 328.294,248.654 325.794,248.154 323,249.5C 322.239,260.101 327.072,266.934 337.5,270C 341.686,275.233 340.186,278.066 333,278.5C 326.794,277.391 322.127,274.057 319,268.5C 317.333,264.167 315.667,259.833 314,255.5C 310.095,251.299 307.262,251.965 305.5,257.5C 306.826,262.82 309.66,267.153 314,270.5C 314.483,271.448 314.649,272.448 314.5,273.5C 311.351,273.789 308.351,273.289 305.5,272C 301.226,267.726 297.726,262.893 295,257.5C 293.556,255.845 291.722,255.178 289.5,255.5C 290.964,262.935 293.964,269.768 298.5,276C 306.724,282.198 315.89,286.032 326,287.5C 326.52,289.289 326.187,290.956 325,292.5C 323.365,293.726 321.865,295.059 320.5,296.5C 329.225,299.223 338.058,301.556 347,303.5C 355.783,302.028 362.949,297.861 368.5,291C 372.339,290.541 376.172,290.041 380,289.5C 381.967,289.542 383.801,290.042 385.5,291C 381.59,292.907 378.256,295.573 375.5,299C 372.538,300.564 369.538,300.731 366.5,299.5C 363.399,301.098 360.732,303.265 358.5,306C 364.167,306.667 369.833,306.667 375.5,306C 377.316,303.342 379.816,301.842 383,301.5C 387.052,303.204 390.885,305.371 394.5,308C 395.554,309.388 395.72,310.888 395,312.5C 393.938,311.101 392.605,310.101 391,309.5C 385.943,312.821 380.777,313.154 375.5,310.5C 369.681,309.347 363.681,309.181 357.5,310C 358.044,310.717 358.711,311.217 359.5,311.5C 361.781,312.608 363.948,313.942 366,315.5C 374.571,313.459 379.904,316.793 382,325.5C 382.667,327.167 382.667,328.833 382,330.5C 380.907,328.651 379.574,326.984 378,325.5C 375.599,326.602 373.099,326.769 370.5,326C 367.668,323.842 365.168,321.342 363,318.5C 358.734,316.113 354.234,314.447 349.5,313.5C 346.044,313.818 342.711,314.652 339.5,316C 336.164,321.509 331.498,323.343 325.5,321.5C 324.167,322.5 322.833,323.5 321.5,324.5C 319.717,323.652 319.217,322.319 320,320.5C 322.5,317.333 325,314.167 327.5,311C 331.838,310.209 336.172,309.543 340.5,309C 331.751,307.146 323.084,304.979 314.5,302.5C 311.696,304.138 309.029,305.971 306.5,308C 305.167,308.667 303.833,308.667 302.5,308C 296.599,298.763 289.932,290.096 282.5,282C 275.166,279 270.499,281.334 268.5,289C 269.995,293.823 272.162,298.323 275,302.5C 280.134,306.633 284.968,311.133 289.5,316C 296.143,317.592 302.81,317.926 309.5,317C 311.19,320.525 310.524,323.525 307.5,326C 302.457,327.861 297.457,327.861 292.5,326C 290.615,323.778 288.449,321.944 286,320.5C 282.49,321.661 281.156,323.994 282,327.5C 287.911,333.579 295.078,336.745 303.5,337C 304.876,339.54 304.21,341.54 301.5,343C 297.5,343.667 293.5,343.667 289.5,343C 285.252,340.757 281.586,337.757 278.5,334C 277.207,333.51 275.873,333.343 274.5,333.5C 275.628,344.961 281.961,350.961 293.5,351.5C 293.113,358.382 289.447,360.882 282.5,359C 276.111,355.611 271.444,350.611 268.5,344C 267.551,343.383 266.718,343.549 266,344.5C 265.233,348.594 265.566,352.594 267,356.5C 269.514,359.678 272.014,362.844 274.5,366C 268.547,376.072 262.213,385.905 255.5,395.5C 248.56,386.059 242.227,376.226 236.5,366C 238.986,362.844 241.486,359.678 244,356.5C 245.434,352.594 245.767,348.594 245,344.5C 244.282,343.549 243.449,343.383 242.5,344C 239.556,350.611 234.889,355.611 228.5,359C 224.495,360.098 220.995,359.265 218,356.5C 217.202,354.741 217.369,353.074 218.5,351.5C 229.506,350.494 235.506,344.494 236.5,333.5C 235.127,333.343 233.793,333.51 232.5,334C 229.414,337.757 225.748,340.757 221.5,343C 216.442,344.01 211.609,343.51 207,341.5C 206.333,340.167 206.333,338.833 207,337.5C 215.396,336.637 222.73,333.304 229,327.5C 230.073,323.905 228.739,321.905 225,321.5C 221.937,322.881 219.104,324.714 216.5,327C 212.833,327.667 209.167,327.667 205.5,327C 200.728,325.013 199.395,321.68 201.5,317C 208.167,316.667 214.833,316.333 221.5,316C 226.032,311.133 230.866,306.633 236,302.5C 238.838,298.323 241.005,293.823 242.5,289C 240.501,281.334 235.834,279 228.5,282C 221.068,290.096 214.401,298.763 208.5,308C 207.167,308.667 205.833,308.667 204.5,308C 201.905,305.787 199.072,303.953 196,302.5C 186.847,304.747 177.68,306.913 168.5,309C 173.497,309.561 178.497,310.228 183.5,311C 185.647,314.115 188.147,316.948 191,319.5C 191.309,325.256 189.476,325.923 185.5,321.5C 179.502,323.343 174.836,321.509 171.5,316C 159.595,311.786 149.928,314.786 142.5,325C 138.901,326.014 135.235,326.847 131.5,327.5C 128.753,331.354 127.92,330.688 129,325.5C 131.115,316.784 136.448,313.451 145,315.5C 147.042,313.957 149.208,312.624 151.5,311.5C 152.289,311.217 152.956,310.717 153.5,310C 147.319,309.181 141.319,309.347 135.5,310.5C 130.177,313.311 125.01,312.978 120,309.5C 118.715,309.95 117.548,310.617 116.5,311.5C 116.167,311 115.833,310.5 115.5,310C 118.218,307.841 120.885,305.507 123.5,303C 128.308,300.563 132.308,301.563 135.5,306C 141.167,306.667 146.833,306.667 152.5,306C 150.268,303.265 147.601,301.098 144.5,299.5C 141.423,300.877 138.423,300.71 135.5,299C 132.693,295.767 129.36,293.267 125.5,291.5C 127.021,290.063 128.855,289.396 131,289.5C 135.248,289.958 139.415,290.791 143.5,292C 148.482,298.297 154.982,302.13 163,303.5C 172.371,301.533 181.538,299.033 190.5,296C 186.553,294.411 184.72,291.578 185,287.5C 195.137,286.016 204.304,282.182 212.5,276C 217.177,269.848 220.177,263.015 221.5,255.5C 219.278,255.178 217.444,255.845 216,257.5C 213.274,262.893 209.774,267.726 205.5,272C 202.649,273.289 199.649,273.789 196.5,273.5C 197.264,270.213 199.097,267.546 202,265.5C 203.444,262.945 204.611,260.279 205.5,257.5C 203.687,251.946 200.854,251.279 197,255.5C 195.376,263.065 191.876,269.565 186.5,275C 182.65,278.027 178.316,279.027 173.5,278C 169.745,275.451 169.745,272.784 173.5,270C 183.928,266.934 188.761,260.101 188,249.5C 187.275,248.941 186.442,248.608 185.5,248.5C 183.056,249.767 180.723,251.267 178.5,253C 170.136,261.03 162.136,269.363 154.5,278C 147.798,282.509 140.465,284.176 132.5,283C 125.26,280.236 123.927,275.902 128.5,270C 134.39,268.755 140.39,268.088 146.5,268C 150.112,266.861 153.446,265.194 156.5,263C 162,256.833 167.5,250.667 173,244.5C 173.813,242.564 174.313,240.564 174.5,238.5C 173.127,238.343 171.793,238.51 170.5,239C 165.167,243.667 159.833,248.333 154.5,253C 147.005,257.208 139.005,258.875 130.5,258C 127.093,256.261 124.76,253.594 123.5,250C 123.759,248.739 124.426,247.739 125.5,247C 146.429,250.367 161.763,242.867 171.5,224.5C 171.392,223.558 171.059,222.725 170.5,222C 168.833,221.333 167.167,221.333 165.5,222C 157.12,227.19 148.454,231.857 139.5,236C 134.243,237.426 129.743,236.259 126,232.5C 124.877,229.044 125.71,226.21 128.5,224C 136.434,224.134 144.1,222.801 151.5,220C 156.328,216.419 161.328,213.085 166.5,210C 168.184,207.214 167.517,205.38 164.5,204.5C 157.954,207.606 151.287,210.439 144.5,213C 137.51,214.528 131.343,213.028 126,208.5C 124.336,205.711 124.17,202.877 125.5,200C 135.077,201.31 144.743,201.643 154.5,201C 159.167,199 163.833,197 168.5,195C 172.919,191.366 172.419,188.866 167,187.5C 156.935,191.913 146.435,193.747 135.5,193C 126.584,190.286 122.918,184.453 124.5,175.5C 126.098,174.515 127.765,174.349 129.5,175C 142.823,185.069 155.99,184.902 169,174.5C 169.49,173.207 169.657,171.873 169.5,170.5C 160.899,172.09 152.233,172.59 143.5,172C 136.665,171.165 130.832,168.332 126,163.5C 124.069,160.386 123.402,157.053 124,153.5C 125.126,152.056 126.626,151.39 128.5,151.5C 134.023,155.092 140.023,157.926 146.5,160C 153.833,160.667 161.167,160.667 168.5,160C 169.935,157.733 169.602,155.733 167.5,154C 152.761,152.794 139.761,147.46 128.5,138C 123.489,132.585 122.323,126.418 125,119.5C 127.794,118.154 130.294,118.654 132.5,121C 141.131,133.625 152.965,141.458 168,144.5C 169.274,143.465 170.44,142.298 171.5,141C 173.167,140.333 174.833,140.333 176.5,141C 187.025,145.512 197.192,150.679 207,156.5C 207.173,161.584 207.839,166.584 209,171.5C 215.42,180.726 221.754,180.726 228,171.5C 230.287,162.539 227.787,155.039 220.5,149C 211.12,142.651 200.786,139.317 189.5,139C 181.751,135.951 182.417,134.784 191.5,135.5C 191.5,134.5 191.5,133.5 191.5,132.5C 185.087,131.814 178.753,130.647 172.5,129C 169.115,128.119 167.448,125.952 167.5,122.5C 168.873,122.343 170.207,122.51 171.5,123C 178.509,128.918 186.509,131.085 195.5,129.5C 194.352,127.851 193.019,126.351 191.5,125C 187.664,124.694 183.997,124.528 180.5,124.5C 181.648,122.851 182.981,121.351 184.5,120C 190.007,120.293 195.007,118.96 199.5,116C 203.5,115.333 207.5,115.333 211.5,116C 220.19,119.37 229.19,121.37 238.5,122C 235.833,124 233.167,126 230.5,128C 234.5,131 238.5,134 242.5,137C 241.552,137.483 240.552,137.649 239.5,137.5 Z"/></g>
<g><path style="opacity:1" fill="#d01c1d" d="M 202.5,120.5 C 205.32,120.248 207.986,120.748 210.5,122C 211.517,123.049 211.684,124.216 211,125.5C 207.621,127.923 204.121,128.09 200.5,126C 199.08,123.426 199.747,121.593 202.5,120.5 Z"/></g>
<g><path style="opacity:1" fill="#cd1c1e" d="M 301.5,120.5 C 304.649,120.211 307.649,120.711 310.5,122C 311.517,123.049 311.684,124.216 311,125.5C 307.621,127.923 304.121,128.09 300.5,126C 299.156,123.856 299.49,122.023 301.5,120.5 Z"/></g>
<g><path style="opacity:0.714" fill="#b85d6b" d="M 472.5,119.5 C 473.906,119.973 474.573,120.973 474.5,122.5C 473.094,122.027 472.427,121.027 472.5,119.5 Z"/></g>
<g><path style="opacity:0.694" fill="#b85c6b" d="M 475.5,124.5 C 476.906,124.973 477.573,125.973 477.5,127.5C 476.094,127.027 475.427,126.027 475.5,124.5 Z"/></g>
<g><path style="opacity:1" fill="#e93838" d="M 445.5,132.5 C 458.423,133.236 462.589,139.569 458,151.5C 453.375,155.641 448.209,156.474 442.5,154C 435.039,145.509 436.039,138.342 445.5,132.5 Z"/></g>
<g><path style="opacity:0.612" fill="#b95469" d="M 479.5,131.5 C 480.906,131.973 481.573,132.973 481.5,134.5C 480.094,134.027 479.427,133.027 479.5,131.5 Z"/></g>
<g><path style="opacity:1" fill="#80222c" d="M 239.5,137.5 C 239.167,138.167 238.833,138.833 238.5,139.5C 234.861,138.732 235.194,138.066 239.5,137.5 Z"/></g>
<g><path style="opacity:1" fill="#e93838" d="M 454.5,160.5 C 465.289,158.247 472.456,162.247 476,172.5C 476.677,186.822 469.843,193.322 455.5,192C 445.388,187.608 441.888,180.108 445,169.5C 447.406,165.592 450.572,162.592 454.5,160.5 Z"/></g>
<g><path style="opacity:1" fill="#c54d55" d="M 502.5,187.5 C 503.612,189.599 504.279,191.933 504.5,194.5C 502.837,192.562 502.171,190.228 502.5,187.5 Z"/></g>
<g><path style="opacity:0.996" fill="#c54e56" d="M 504.5,195.5 C 505.913,198.219 506.58,201.219 506.5,204.5C 505.087,201.781 504.42,198.781 504.5,195.5 Z"/></g>
<g><path style="opacity:1" fill="#79222e" d="M 135.5,310.5 C 141.319,309.347 147.319,309.181 153.5,310C 152.956,310.717 152.289,311.217 151.5,311.5C 146.36,310.512 141.026,310.179 135.5,310.5 Z"/></g>
<g><path style="opacity:1" fill="#79222e" d="M 375.5,310.5 C 369.974,310.179 364.64,310.512 359.5,311.5C 358.711,311.217 358.044,310.717 357.5,310C 363.681,309.181 369.681,309.347 375.5,310.5 Z"/></g>
<g><path style="opacity:0.016" fill="#bc6872" d="M 464.5,403.5 C 464.573,405.027 463.906,406.027 462.5,406.5C 462.427,404.973 463.094,403.973 464.5,403.5 Z"/></g>
<g><path style="opacity:0.024" fill="#b55771" d="M 458.5,411.5 C 458.573,413.027 457.906,414.027 456.5,414.5C 456.427,412.973 457.094,411.973 458.5,411.5 Z"/></g>
<g><path style="opacity:0.008" fill="#a0727a" d="M 425.5,447.5 C 425.027,448.906 424.027,449.573 422.5,449.5C 422.973,448.094 423.973,447.427 425.5,447.5 Z"/></g>
</svg>
