<?xml version="1.0" standalone="no"?>
<!DOCTYPE svg PUBLIC "-//W3C//DTD SVG 20010904//EN"
 "http://www.w3.org/TR/2001/REC-SVG-20010904/DTD/svg10.dtd">
<svg version="1.0" xmlns="http://www.w3.org/2000/svg"
 width="512.000000pt" height="512.000000pt" viewBox="0 0 512.000000 512.000000"
 preserveAspectRatio="xMidYMid meet">

<g transform="translate(0.000000,512.000000) scale(0.100000,-0.100000)"
fill="#000000" stroke="none">
<path d="M2305 5110 c-602 -67 -1140 -324 -1561 -746 -388 -390 -635 -883
-721 -1444 -25 -162 -25 -558 0 -720 87 -565 333 -1054 728 -1449 702 -702
1734 -934 2673 -600 139 49 373 163 500 244 296 187 570 456 770 755 87 130
217 387 271 534 117 319 171 703 147 1038 -47 660 -311 1227 -784 1683 -379
367 -839 595 -1378 685 -142 24 -507 35 -645 20z"/>
</g>
</svg>
