<?xml version="1.0" standalone="no"?>
<!DOCTYPE svg PUBLIC "-//W3C//DTD SVG 20010904//EN"
 "http://www.w3.org/TR/2001/REC-SVG-20010904/DTD/svg10.dtd">
<svg version="1.0" xmlns="http://www.w3.org/2000/svg"
 width="512.000000pt" height="512.000000pt" viewBox="0 0 512.000000 512.000000"
 preserveAspectRatio="xMidYMid meet">

<g transform="translate(0.000000,512.000000) scale(0.100000,-0.100000)"
fill="#000000" stroke="none">
<path d="M2420 4954 c-19 -2 -86 -9 -147 -15 l-113 -11 0 -984 0 -984 -984 0
-984 0 -13 -102 c-17 -132 -17 -464 0 -595 l13 -103 984 0 984 0 0 -984 0
-983 113 -14 c61 -8 191 -14 287 -14 96 0 226 6 288 14 l112 14 0 983 0 984
983 2 982 3 13 90 c18 118 18 492 0 610 l-13 90 -982 3 -983 2 -2 983 -3 982
-80 12 c-84 12 -394 24 -455 17z"/>
<path d="M1236 4075 c7 -44 13 -109 15 -145 l4 -65 -55 3 c-57 3 -194 20 -220
27 -13 4 -15 -16 -15 -135 0 -104 3 -139 12 -136 17 7 159 24 223 28 l55 3 -4
-65 c-2 -36 -8 -101 -15 -145 l-11 -80 135 0 136 0 -12 81 c-7 45 -14 110 -16
145 l-3 64 55 -3 c57 -3 194 -20 220 -27 13 -4 15 15 15 133 l0 138 -81 -12
c-45 -7 -110 -14 -145 -16 l-64 -3 4 65 c1 36 8 101 15 145 l11 80 -135 0
-135 0 11 -80z"/>
<path d="M3636 4075 c7 -44 13 -109 15 -145 l4 -65 -55 3 c-57 3 -194 20 -220
27 -13 4 -15 -16 -15 -135 0 -104 3 -139 12 -136 17 7 159 24 223 28 l55 3 -4
-65 c-2 -36 -8 -101 -15 -145 l-11 -80 135 0 136 0 -12 81 c-7 45 -14 110 -16
145 l-3 64 55 -3 c57 -3 194 -20 220 -27 13 -4 15 15 15 133 l0 138 -81 -12
c-45 -7 -110 -14 -145 -16 l-64 -3 4 65 c1 36 8 101 15 145 l11 80 -135 0
-135 0 11 -80z"/>
<path d="M1236 1675 c7 -44 13 -109 15 -145 l4 -65 -55 3 c-57 3 -194 20 -220
27 -13 4 -15 -16 -15 -135 0 -104 3 -139 12 -136 17 7 159 24 223 28 l55 3 -4
-65 c-2 -36 -8 -101 -15 -145 l-11 -80 135 0 136 0 -12 81 c-7 45 -14 110 -16
145 l-3 64 55 -3 c57 -3 194 -20 220 -27 13 -4 15 15 15 133 l0 138 -81 -12
c-45 -7 -110 -14 -145 -16 l-64 -3 4 65 c1 36 8 101 15 145 l11 80 -135 0
-135 0 11 -80z"/>
<path d="M3636 1675 c7 -44 13 -109 15 -145 l4 -65 -55 3 c-57 3 -194 20 -220
27 -13 4 -15 -16 -15 -135 0 -104 3 -139 12 -136 17 7 159 24 223 28 l55 3 -4
-65 c-2 -36 -8 -101 -15 -145 l-11 -80 135 0 136 0 -12 81 c-7 45 -14 110 -16
145 l-3 64 55 -3 c57 -3 194 -20 220 -27 13 -4 15 15 15 133 l0 138 -81 -12
c-45 -7 -110 -14 -145 -16 l-64 -3 4 65 c1 36 8 101 15 145 l11 80 -135 0
-135 0 11 -80z"/>
</g>
</svg>
