<?xml version="1.0" encoding="UTF-8"?>
<!DOCTYPE svg PUBLIC "-//W3C//DTD SVG 1.1//EN" "http://www.w3.org/Graphics/SVG/1.1/DTD/svg11.dtd">
<svg xmlns="http://www.w3.org/2000/svg" version="1.1" width="512px" height="512px" style="shape-rendering:geometricPrecision; text-rendering:geometricPrecision; image-rendering:optimizeQuality; fill-rule:evenodd; clip-rule:evenodd" xmlns:xlink="http://www.w3.org/1999/xlink">
<g><path style="opacity:0.999" fill="#e32c3b" d="M 295.5,18.5 C 295.5,84.1667 295.5,149.833 295.5,215.5C 361.167,215.5 426.833,215.5 492.5,215.5C 496.5,242.167 496.5,268.833 492.5,295.5C 426.833,295.5 361.167,295.5 295.5,295.5C 295.5,361.167 295.5,426.833 295.5,492.5C 282.134,494.899 268.634,495.899 255,495.5C 241.67,495.914 228.503,494.914 215.5,492.5C 215.5,426.833 215.5,361.167 215.5,295.5C 149.833,295.5 84.1667,295.5 18.5,295.5C 16.0559,282.333 15.0559,269 15.5,255.5C 15.0559,242 16.0559,228.667 18.5,215.5C 84.1667,215.5 149.833,215.5 215.5,215.5C 215.5,149.833 215.5,84.1667 215.5,18.5C 242.165,14.5001 268.831,14.5001 295.5,18.5 Z"/></g>
<g><path style="opacity:0.992" fill="#fefefe" d="M 215.5,18.5 C 215.5,84.1667 215.5,149.833 215.5,215.5C 149.833,215.5 84.1667,215.5 18.5,215.5C 32.6326,140.24 72.6326,83.4069 138.5,45C 162.709,31.8749 188.376,23.0416 215.5,18.5 Z"/></g>
<g><path style="opacity:0.992" fill="#fefefe" d="M 295.5,18.5 C 370.773,32.6506 427.606,72.6506 466,138.5C 479.122,162.698 487.955,188.365 492.5,215.5C 426.833,215.5 361.167,215.5 295.5,215.5C 295.5,149.833 295.5,84.1667 295.5,18.5 Z"/></g>
<g><path style="opacity:1" fill="#e3303e" d="M 121.5,95.5 C 130.863,96.3888 140.196,96.7222 149.5,96.5C 147.088,105.666 146.088,114.999 146.5,124.5C 156.216,123.91 165.883,122.91 175.5,121.5C 174.27,130.819 174.27,140.152 175.5,149.5C 165.944,147.549 156.277,146.549 146.5,146.5C 146.551,156.287 147.551,165.954 149.5,175.5C 140.152,174.27 130.819,174.27 121.5,175.5C 123.343,165.927 124.343,156.26 124.5,146.5C 115.044,146.541 105.71,147.541 96.5,149.5C 96.786,140.206 96.4526,130.873 95.5,121.5C 105.096,123.157 114.763,124.157 124.5,124.5C 124.868,114.671 123.868,105.005 121.5,95.5 Z"/></g>
<g><path style="opacity:1" fill="#e3303e" d="M 361.5,95.5 C 370.863,96.3888 380.196,96.7222 389.5,96.5C 387.088,105.666 386.088,114.999 386.5,124.5C 396.216,123.91 405.883,122.91 415.5,121.5C 414.27,130.819 414.27,140.152 415.5,149.5C 405.944,147.549 396.277,146.549 386.5,146.5C 386.551,156.287 387.551,165.954 389.5,175.5C 380.152,174.27 370.819,174.27 361.5,175.5C 363.343,165.927 364.343,156.26 364.5,146.5C 355.044,146.541 345.71,147.541 336.5,149.5C 336.786,140.206 336.453,130.873 335.5,121.5C 345.096,123.157 354.763,124.157 364.5,124.5C 364.868,114.671 363.868,105.005 361.5,95.5 Z"/></g>
<g><path style="opacity:0.992" fill="#fefefe" d="M 18.5,295.5 C 84.1667,295.5 149.833,295.5 215.5,295.5C 215.5,361.167 215.5,426.833 215.5,492.5C 125.222,474.617 63.055,422.95 29,337.5C 24.1593,323.816 20.6593,309.816 18.5,295.5 Z"/></g>
<g><path style="opacity:0.992" fill="#fefefe" d="M 492.5,295.5 C 478.349,370.773 438.349,427.606 372.5,466C 348.302,479.122 322.635,487.955 295.5,492.5C 295.5,426.833 295.5,361.167 295.5,295.5C 361.167,295.5 426.833,295.5 492.5,295.5 Z"/></g>
<g><path style="opacity:1" fill="#e3303e" d="M 121.5,335.5 C 130.863,336.389 140.196,336.722 149.5,336.5C 147.088,345.666 146.088,354.999 146.5,364.5C 156.216,363.91 165.883,362.91 175.5,361.5C 174.27,370.819 174.27,380.152 175.5,389.5C 165.944,387.549 156.277,386.549 146.5,386.5C 146.551,396.287 147.551,405.954 149.5,415.5C 140.152,414.27 130.819,414.27 121.5,415.5C 123.343,405.927 124.343,396.26 124.5,386.5C 115.044,386.541 105.71,387.541 96.5,389.5C 96.786,380.206 96.4526,370.873 95.5,361.5C 105.096,363.157 114.763,364.157 124.5,364.5C 124.868,354.671 123.868,345.005 121.5,335.5 Z"/></g>
<g><path style="opacity:1" fill="#e3303e" d="M 361.5,335.5 C 370.863,336.389 380.196,336.722 389.5,336.5C 387.088,345.666 386.088,354.999 386.5,364.5C 396.216,363.91 405.883,362.91 415.5,361.5C 414.27,370.819 414.27,380.152 415.5,389.5C 405.944,387.549 396.277,386.549 386.5,386.5C 386.551,396.287 387.551,405.954 389.5,415.5C 380.152,414.27 370.819,414.27 361.5,415.5C 363.343,405.927 364.343,396.26 364.5,386.5C 355.044,386.541 345.71,387.541 336.5,389.5C 336.786,380.206 336.453,370.873 335.5,361.5C 345.096,363.157 354.763,364.157 364.5,364.5C 364.868,354.671 363.868,345.005 361.5,335.5 Z"/></g>
</svg>
