<?xml version="1.0" encoding="UTF-8"?>
<!DOCTYPE svg PUBLIC "-//W3C//DTD SVG 1.1//EN" "http://www.w3.org/Graphics/SVG/1.1/DTD/svg11.dtd">
<svg xmlns="http://www.w3.org/2000/svg" version="1.1" width="512px" height="512px" style="shape-rendering:geometricPrecision; text-rendering:geometricPrecision; image-rendering:optimizeQuality; fill-rule:evenodd; clip-rule:evenodd" xmlns:xlink="http://www.w3.org/1999/xlink">
<g><path style="opacity:0.999" fill="#feda44" d="M 232.5,-0.5 C 247.833,-0.5 263.167,-0.5 278.5,-0.5C 300.957,1.94494 322.957,6.94494 344.5,14.5C 344.5,175.167 344.5,335.833 344.5,496.5C 322.957,504.055 300.957,509.055 278.5,511.5C 263.167,511.5 247.833,511.5 232.5,511.5C 209.516,508.969 187.183,503.636 165.5,495.5C 166.833,335.5 166.833,175.5 165.5,15.5C 187.183,7.36408 209.516,2.03075 232.5,-0.5 Z"/></g>
<g><path style="opacity:0.997" fill="#0052b3" d="M 165.5,15.5 C 166.833,175.5 166.833,335.5 165.5,495.5C 80.6843,461.567 27.1843,400.233 5,311.5C 2.92685,300.394 1.09351,289.394 -0.5,278.5C -0.5,263.167 -0.5,247.833 -0.5,232.5C 10.3879,142.856 54.7213,75.3562 132.5,30C 143.234,24.4807 154.234,19.6474 165.5,15.5 Z"/></g>
<g><path style="opacity:0.996" fill="#d80027" d="M 344.5,14.5 C 428.208,48.0418 481.708,108.375 505,195.5C 507.62,207.897 509.787,220.23 511.5,232.5C 511.5,247.833 511.5,263.167 511.5,278.5C 500.611,368.146 456.278,435.646 378.5,481C 367.432,486.851 356.099,492.018 344.5,496.5C 344.5,335.833 344.5,175.167 344.5,14.5 Z"/></g>
</svg>
