<?xml version="1.0" standalone="no"?>
<!DOCTYPE svg PUBLIC "-//W3C//DTD SVG 20010904//EN"
 "http://www.w3.org/TR/2001/REC-SVG-20010904/DTD/svg10.dtd">
<svg version="1.0" xmlns="http://www.w3.org/2000/svg"
 width="512.000000pt" height="512.000000pt" viewBox="0 0 512.000000 512.000000"
 preserveAspectRatio="xMidYMid meet">

<g transform="translate(0.000000,512.000000) scale(0.100000,-0.100000)"
fill="#000000" stroke="none">
<path d="M1575 4921 c-312 -130 -610 -334 -851 -582 -385 -398 -619 -880 -700
-1444 -24 -165 -24 -505 0 -670 108 -753 502 -1382 1126 -1797 129 -86 354
-205 468 -247 l52 -19 0 2399 c0 1319 -1 2399 -2 2398 -2 0 -43 -17 -93 -38z"/>
<path d="M3450 2560 l0 -2399 48 17 c88 31 367 177 467 244 311 208 592 499
781 808 71 116 169 321 219 454 116 314 171 703 147 1039 -14 193 -32 305 -77
483 -153 598 -541 1140 -1067 1490 -105 70 -376 211 -475 248 l-43 16 0 -2400z"/>
</g>
</svg>
