<?xml version="1.0" standalone="no"?>
<!DOCTYPE svg PUBLIC "-//W3C//DTD SVG 20010904//EN"
 "http://www.w3.org/TR/2001/REC-SVG-20010904/DTD/svg10.dtd">
<svg version="1.0" xmlns="http://www.w3.org/2000/svg"
 width="512.000000pt" height="512.000000pt" viewBox="0 0 512.000000 512.000000"
 preserveAspectRatio="xMidYMid meet">

<g transform="translate(0.000000,512.000000) scale(0.100000,-0.100000)"
fill="#000000" stroke="none">
<path d="M890 3787 l0 -332 113 -112 112 -112 219 164 c121 91 222 165 225
165 3 0 105 -75 226 -166 l219 -165 108 108 108 108 0 337 0 338 -665 0 -665
0 0 -333z"/>
<path d="M141 3393 c-104 -288 -156 -675 -133 -998 46 -625 289 -1173 717
-1614 928 -956 2425 -1043 3452 -202 747 611 1085 1583 882 2529 -21 98 -59
229 -86 300 l-16 42 -1363 0 -1364 0 0 -128 c0 -196 -22 -285 -101 -402 -93
-139 -286 -270 -502 -341 l-69 -22 -70 22 c-105 34 -274 123 -353 186 -89 70
-148 141 -191 230 -44 92 -54 149 -54 316 l0 139 -364 0 -364 0 -21 -57z"/>
</g>
</svg>
